<svg xmlns="http://www.w3.org/2000/svg" width="40" height="40" viewBox="0 0 40 40">
  <g id="Group_754" data-name="Group 754" transform="translate(-288 -2075)">
    <g id="Group_753" data-name="Group 753">
      <rect id="Rectangle_494" data-name="Rectangle 494" width="40" height="40" transform="translate(288 2075)" fill="none"/>
    </g>
    <g id="loss_1_" data-name="loss (1)" transform="translate(297.461 2078.648)">
      <path id="Path_25" data-name="Path 25" d="M21.078,10.539A10.539,10.539,0,1,0,7.665,20.68v4.359H4.79a.958.958,0,0,0-.677,1.635l5.749,5.749a.958.958,0,0,0,1.355,0l5.749-5.749a.958.958,0,0,0-.677-1.635H13.413V20.68A10.558,10.558,0,0,0,21.078,10.539Zm-19.162,0a8.623,8.623,0,1,1,8.623,8.623A8.633,8.633,0,0,1,1.916,10.539ZM12.455,26.954h1.519L10.539,30.39,7.1,26.954H8.623A.958.958,0,0,0,9.581,26V21.034c.316.028.635.044.958.044s.642-.015.958-.044V26A.958.958,0,0,0,12.455,26.954Zm0,0" fill="#4A4A4A"/>
      <path id="Path_26" data-name="Path 26" d="M123.982,72.455v-1.4a2.874,2.874,0,0,0-.948-5.587.958.958,0,1,1,.958-.958.958.958,0,1,0,1.916,0,2.879,2.879,0,0,0-1.926-2.713v-.839a.958.958,0,0,0-1.916,0V61.8a2.874,2.874,0,0,0,.968,5.58.958.958,0,1,1-.958.958.958.958,0,0,0-1.916,0,2.879,2.879,0,0,0,1.906,2.706v1.407a.958.958,0,1,0,1.916,0Zm0,0" transform="translate(-112.485 -56.168)" fill="#4A4A4A"/>
    </g>
  </g>
</svg>
