<svg xmlns="http://www.w3.org/2000/svg" width="40" height="40" viewBox="0 0 40 40">
  <g id="Group_753" data-name="Group 753" transform="translate(-288 -2075)">
    <g id="XMLID_261_" transform="translate(289.109 1992.777)">
      <g id="XMLID_271_" transform="translate(0 90)">
        <path id="Path_27" data-name="Path 27" d="M26.623,114.447h-14.4a3.331,3.331,0,0,1-3.332-3.427,3.38,3.38,0,0,1,3.379-3.241h1.019a1.143,1.143,0,0,0,1.157-1.079,1.111,1.111,0,0,0-1.111-1.143A3.331,3.331,0,0,1,10,102.13a3.38,3.38,0,0,1,3.379-3.241h1.065a1.111,1.111,0,0,0,0-2.222H3.334a3.334,3.334,0,1,1,0-6.667H28.892a3.334,3.334,0,0,1,0,6.667H25.558a1.111,1.111,0,0,0,0,2.222H34.4a3.38,3.38,0,0,1,3.379,3.241,3.331,3.331,0,0,1-3.332,3.427H23.336a1.111,1.111,0,0,0-1.111,1.143,1.143,1.143,0,0,0,1.157,1.079h3.287A3.331,3.331,0,0,1,30,111.206a3.38,3.38,0,0,1-3.379,3.241ZM12.27,110a1.143,1.143,0,0,0-1.157,1.079,1.111,1.111,0,0,0,1.111,1.143h14.4a1.143,1.143,0,0,0,1.157-1.079A1.111,1.111,0,0,0,26.669,110H23.382A3.38,3.38,0,0,1,20,106.761a3.331,3.331,0,0,1,3.332-3.427H34.448a1.111,1.111,0,0,0,1.111-1.143,1.143,1.143,0,0,0-1.157-1.079H25.558a3.334,3.334,0,1,1,0-6.667h3.334a1.111,1.111,0,0,0,0-2.222H3.334a1.111,1.111,0,0,0,0,2.222H14.446a3.334,3.334,0,1,1,0,6.667H13.381a1.143,1.143,0,0,0-1.157,1.079,1.111,1.111,0,0,0,1.111,1.143,3.331,3.331,0,0,1,3.332,3.427A3.38,3.38,0,0,1,13.288,110Z" transform="translate(0 -90)" fill="#4A4A4A"/>
      </g>
      <g id="XMLID_262_" transform="translate(2.222 100.001)">
        <path id="Path_28" data-name="Path 28" d="M30,225h2.222v2.222H30Z" transform="translate(-30 -225)" fill="#4A4A4A"/>
      </g>
      <g id="XMLID_263_" transform="translate(5.556 104.446)">
        <path id="Path_29" data-name="Path 29" d="M75,285h2.222v2.222H75Z" transform="translate(-75 -285)" fill="#4A4A4A"/>
      </g>
    </g>
    <rect id="Rectangle_494" data-name="Rectangle 494" width="40" height="40" transform="translate(288 2075)" fill="none"/>
  </g>
</svg>
